<svg width="58" height="58" xmlns="http://www.w3.org/2000/svg" xmlns:xlink="http://www.w3.org/1999/xlink" xml:space="preserve" overflow="hidden"><g transform="translate(-529 -84)"><path d="M556.32 127.989C548.742 126.741 543.188 120.179 543.21 112.499 543.221 111.547 543.318 110.599 543.5 109.665L543.548 109.665 544.654 111.58C544.988 112.159 545.727 112.358 546.306 112.024 546.885 111.691 547.084 110.951 546.75 110.372L544.183 105.931C544.023 105.655 543.76 105.453 543.452 105.369 543.142 105.286 542.811 105.33 542.533 105.49L538.062 108.07C537.471 108.379 537.243 109.109 537.552 109.701 537.861 110.292 538.591 110.521 539.183 110.211 539.213 110.196 539.242 110.179 539.271 110.16L541.12 109.091C540.905 110.214 540.795 111.355 540.793 112.499 540.766 121.353 547.162 128.921 555.898 130.37L556.103 130.37C556.77 130.423 557.354 129.925 557.408 129.258 557.461 128.591 556.964 128.007 556.296 127.953Z" stroke="#156082" stroke-width="0.604167" fill="#156082"/><path d="M577.043 112.499C577.046 110.34 576.663 108.198 575.914 106.173 575.68 105.547 574.983 105.229 574.358 105.463 573.732 105.697 573.414 106.393 573.648 107.019 576.673 115.15 572.534 124.194 564.403 127.219 564.345 127.24 564.287 127.262 564.229 127.283L564.229 127.283 565.329 125.361C565.662 124.781 565.462 124.04 564.881 123.706 564.301 123.372 563.56 123.572 563.226 124.153L560.689 128.606C560.357 129.185 560.557 129.923 561.136 130.255 561.136 130.255 561.136 130.255 561.136 130.255L565.588 132.799C566.169 133.132 566.91 132.932 567.244 132.351 567.577 131.771 567.377 131.03 566.797 130.696L564.912 129.627C572.201 127.098 577.077 120.214 577.043 112.499Z" stroke="#156082" stroke-width="0.604167" fill="#156082"/><path d="M566.773 100.397C566.105 100.397 565.564 100.938 565.564 101.605 565.564 102.273 566.105 102.814 566.773 102.814L571.739 102.814C571.785 102.817 571.831 102.817 571.878 102.814 572.11 102.814 572.337 102.744 572.53 102.614L572.615 102.56 572.651 102.53 572.651 102.53 572.73 102.469C572.966 102.244 573.101 101.932 573.104 101.605L573.104 96.4821C573.104 95.8147 572.563 95.2738 571.896 95.2738 571.228 95.2738 570.688 95.8147 570.688 96.4821L570.688 98.6873 570.688 98.6873C563.068 92.1949 551.629 93.1082 545.136 100.727 545.108 100.76 545.08 100.793 545.053 100.826 544.622 101.337 544.687 102.099 545.198 102.53 545.708 102.96 546.471 102.895 546.901 102.385 552.45 95.7759 562.291 94.8803 568.941 100.379Z" stroke="#156082" stroke-width="0.604167" fill="#156082"/></g></svg>