<svg width="93" height="58" xmlns="http://www.w3.org/2000/svg" xmlns:xlink="http://www.w3.org/1999/xlink" xml:space="preserve" overflow="hidden"><g transform="translate(-511 -608)"><path d="M27.556 41.1679C27.556 42.6828 26.328 43.9108 24.8131 43.9108 23.2983 43.9108 22.0702 42.6828 22.0702 41.1679 22.0702 39.653 23.2983 38.425 24.8131 38.425 26.328 38.425 27.556 39.653 27.556 41.1679Z" stroke="#156082" stroke-width="0.604167" fill="#156082" transform="matrix(1.60345 0 0 1 511 608)"/><path d="M30.2083 50.1458 30.2083 47.4029C30.1994 46.9755 30 46.5744 29.6646 46.3094 28.8764 45.7018 27.9745 45.2581 27.0123 45.0044 26.286 44.7814 25.5306 44.6674 24.7708 44.666 24.0119 44.6778 23.2579 44.7915 22.5294 45.0044 21.5778 45.2861 20.6809 45.7274 19.8771 46.3094 19.5417 46.5744 19.3423 46.9755 19.3333 47.4029L19.3333 50.1458Z" stroke="#156082" stroke-width="0.604167" fill="#156082" transform="matrix(1.60345 0 0 1 511 608)"/><path d="M39.5548 41.1679C39.5548 42.6828 38.3267 43.9108 36.8119 43.9108 35.297 43.9108 34.069 42.6828 34.069 41.1679 34.069 39.653 35.297 38.425 36.8119 38.425 38.3267 38.425 39.5548 39.653 39.5548 41.1679Z" stroke="#156082" stroke-width="0.604167" fill="#156082" transform="matrix(1.60345 0 0 1 511 608)"/><path d="M42.2917 50.1458 42.2917 47.4029C42.2827 46.9755 42.0834 46.5744 41.7479 46.3094 40.9597 45.7018 40.0579 45.2581 39.0956 45.0044 38.3693 44.7814 37.6139 44.6674 36.8542 44.666 36.0952 44.6778 35.3413 44.7915 34.6127 45.0044 33.6611 45.2861 32.7643 45.7274 31.9604 46.3094 31.625 46.5744 31.4256 46.9755 31.4167 47.4029L31.4167 50.1458Z" stroke="#156082" stroke-width="0.604167" fill="#156082" transform="matrix(1.60345 0 0 1 511 608)"/><path d="M51.6381 41.1679C51.6381 42.6828 50.4101 43.9108 48.8952 43.9108 47.3803 43.9108 46.1523 42.6828 46.1523 41.1679 46.1523 39.653 47.3803 38.425 48.8952 38.425 50.4101 38.425 51.6381 39.653 51.6381 41.1679Z" stroke="#156082" stroke-width="0.604167" fill="#156082" transform="matrix(1.60345 0 0 1 511 608)"/><path d="M54.375 50.1458 54.375 47.4029C54.3661 46.9755 54.1667 46.5744 53.8312 46.3094 53.0431 45.7018 52.1412 45.2581 51.179 45.0044 50.4526 44.7814 49.6972 44.6674 48.9375 44.666 48.1785 44.6778 47.4246 44.7915 46.696 45.0044 45.7445 45.2861 44.8476 45.7274 44.0438 46.3094 43.7083 46.5744 43.5089 46.9755 43.5 47.4029L43.5 50.1458Z" stroke="#156082" stroke-width="0.604167" fill="#156082" transform="matrix(1.60345 0 0 1 511 608)"/><path d="M16.5662 15.805C16.5662 17.787 14.9595 19.3937 12.9775 19.3937 10.9955 19.3937 9.38875 17.787 9.38875 15.805 9.38875 13.823 10.9955 12.2162 12.9775 12.2162 14.9595 12.2162 16.5662 13.823 16.5662 15.805Z" stroke="#156082" stroke-width="0.604167" fill="#156082" transform="matrix(1.60345 0 0 1 511 608)"/><path d="M34.1415 14.4215C33.7863 14.0713 33.2158 14.0713 32.8606 14.4215L25.0548 22.2273C24.431 22.0512 23.7606 22.2217 23.2967 22.6744 23.1698 22.8013 20.9163 26.4867 20.9163 26.4867L20.2396 23.6048C20.15 23.2332 19.9646 22.8916 19.7019 22.614 18.5883 21.7138 17.3068 21.0443 15.9319 20.6444 14.9599 20.4365 13.9711 20.3172 12.9775 20.2879 11.9751 20.3034 10.9793 20.4538 10.0171 20.735 8.62974 21.0987 7.34286 21.7721 6.25313 22.7046 5.98802 22.9805 5.80226 23.3228 5.71542 23.6954 5.71542 23.6954 3.11146 34.6308 3.11146 34.8121 3.11146 35.8131 3.92295 36.6246 4.92396 36.6246 5.72617 36.604 6.41933 36.0583 6.62771 35.2833L8.51271 27.4835 8.51271 52.5625 12.0833 52.5625 12.0833 36.4252 13.8958 36.4252 13.8958 52.5625 17.4604 52.5625 17.4604 27.3687 18.125 30.2083C18.1711 30.4046 18.3015 30.5705 18.4815 30.6615 19.1762 31.1947 20.0226 31.493 20.8981 31.5133 21.4682 31.5931 22.0331 31.3366 22.3481 30.8548L26.0335 24.8131C26.2691 24.4417 26.3575 23.9957 26.2812 23.5625L34.1354 15.7083C34.4911 15.3541 34.4939 14.779 34.1415 14.4215Z" stroke="#156082" stroke-width="0.604167" fill="#156082" transform="matrix(1.60345 0 0 1 511 608)"/><path d="M46.5208 6.04167 16.9167 6.04167C15.582 6.04167 14.5 7.12367 14.5 8.45833L14.5 10.6333C15.4238 10.8848 16.2601 11.3866 16.9167 12.0833L16.9167 8.45833 46.5208 8.45833 46.5208 28.3958 25.9006 28.3958 24.4265 30.8125 46.5208 30.8125C47.8555 30.8125 48.9375 29.7305 48.9375 28.3958L48.9375 8.45833C48.9375 7.12367 47.8555 6.04167 46.5208 6.04167Z" stroke="#156082" stroke-width="0.604167" fill="#156082" transform="matrix(1.60345 0 0 1 511 608)"/></g></svg>