<svg width="58" height="58" xmlns="http://www.w3.org/2000/svg" xmlns:xlink="http://www.w3.org/1999/xlink" xml:space="preserve" overflow="hidden"><g transform="translate(-529 -144)"><path d="M538.969 194.025C538.546 194.448 538.002 194.569 537.458 194.327 536.915 194.085 536.612 193.602 536.612 193.058 536.612 192.515 536.975 191.971 537.458 191.79 538.002 191.548 538.546 191.669 538.969 192.092 539.513 192.575 539.513 193.481 538.969 194.025ZM581.623 154.21 576.729 159.104 572.862 158.077 571.896 154.271 576.79 149.377C573.89 148.29 570.627 148.954 568.331 151.008 566.035 153.123 565.129 156.265 565.915 159.285L535.102 190.098C534.015 191.125 533.592 192.696 533.954 194.146 534.317 195.596 535.465 196.744 536.915 197.106 538.365 197.469 539.875 197.046 540.963 195.958L571.775 165.146C574.796 165.931 577.938 165.025 580.052 162.729 582.106 160.433 582.771 157.11 581.623 154.21Z" stroke="#156082" stroke-width="0.604167" fill="#156082"/><path d="M581.381 190.098 565.794 174.51 559.51 180.794 574.615 195.898 575.158 196.442 575.219 196.381C576.971 197.65 579.388 197.408 580.898 195.898 582.408 194.327 582.59 191.91 581.381 190.098L581.381 190.098Z" stroke="#156082" stroke-width="0.604167" fill="#156082"/><path d="M542.654 155.962 542.715 155.902 541.144 153.002 535.948 148.833 533.833 150.948 538.002 156.144 540.902 157.715 540.963 157.654 552.502 169.194 554.194 167.502Z" stroke="#156082" stroke-width="0.604167" fill="#156082"/></g></svg>