<svg width="58" height="58" xmlns="http://www.w3.org/2000/svg" xmlns:xlink="http://www.w3.org/1999/xlink" xml:space="preserve" overflow="hidden"><g transform="translate(-529 -202)"><path d="M584.153 224.367C584.116 223.826 583.722 223.375 583.19 223.267L576.801 221.962C576.404 221.88 575.992 222.004 575.706 222.292L574.415 223.581 565.836 215.002C565.732 216.76 564.784 218.359 563.29 219.292L570.997 226.999 569.751 228.246C569.468 228.529 569.343 228.934 569.419 229.328L570.654 235.783C570.758 236.322 571.212 236.724 571.76 236.761L578.168 237.188C578.195 237.188 578.223 237.191 578.25 237.191 578.917 237.213 579.476 236.689 579.498 236.022 579.52 235.355 578.996 234.796 578.329 234.774L572.852 234.412 571.912 229.503 576.955 224.46 581.804 225.448 582.17 230.936C582.215 231.602 582.791 232.107 583.457 232.062 584.124 232.018 584.628 231.442 584.583 230.775Z" stroke="#156082" stroke-width="0.604167" fill="#156082"/><path d="M554.944 232.777C554.944 230.835 554.389 228.933 553.343 227.296L549.08 232.39C546.874 235.034 542.942 235.389 540.298 233.183 537.654 230.977 537.299 227.045 539.505 224.401 539.745 224.114 540.01 223.848 540.298 223.608L540.455 223.476C536.813 225.138 534.475 228.773 534.474 232.777L534.474 244.292 554.944 244.292Z" stroke="#156082" stroke-width="0.604167" fill="#156082"/><path d="M554.979 214.688C554.979 214.32 555.016 213.953 555.09 213.593L541.46 224.998C539.588 226.566 539.341 229.356 540.91 231.228 542.479 233.1 545.268 233.346 547.14 231.777 547.339 231.611 547.523 231.427 547.69 231.228L557.63 219.348C555.989 218.368 554.982 216.599 554.979 214.688ZM545.87 228.527C545.398 228.999 544.633 228.999 544.161 228.527 543.689 228.055 543.689 227.29 544.161 226.818 544.633 226.346 545.398 226.346 545.87 226.818 545.87 226.818 545.87 226.818 545.87 226.818 546.342 227.29 546.342 228.055 545.87 228.527Z" stroke="#156082" stroke-width="0.604167" fill="#156082"/><path d="M554.979 246.708 534.438 246.708C533.103 246.708 532.021 247.79 532.021 249.125L532.021 251.542 557.396 251.542 557.396 249.125C557.396 247.79 556.314 246.708 554.979 246.708Z" stroke="#156082" stroke-width="0.604167" fill="#156082"/><path d="M560.417 211.062C558.415 211.062 556.792 212.685 556.792 214.688 556.792 216.69 558.415 218.312 560.417 218.312 562.419 218.312 564.042 216.69 564.042 214.688 564.042 212.685 562.419 211.062 560.417 211.062ZM560.417 215.594C559.916 215.594 559.51 215.188 559.51 214.688 559.51 214.187 559.916 213.781 560.417 213.781 560.917 213.781 561.323 214.187 561.323 214.688 561.323 215.188 560.917 215.594 560.417 215.594Z" stroke="#156082" stroke-width="0.604167" fill="#156082"/></g></svg>