<svg width="93" height="58" xmlns="http://www.w3.org/2000/svg" xmlns:xlink="http://www.w3.org/1999/xlink" xml:space="preserve" overflow="hidden"><g transform="translate(-511 -257)"><path d="M33.2292 16.2521C33.2292 18.6083 31.3563 20.4813 29 20.4813 26.6437 20.4813 24.7708 18.6083 24.7708 16.2521 24.7708 13.8958 26.6437 12.0229 29 12.0229 31.3563 12.0229 33.2292 13.9563 33.2292 16.2521" stroke="#156082" stroke-width="0.604167" fill="#156082" transform="matrix(1.60345 0 0 1 511 257)"/><path d="M50.1458 18.6688C50.1458 21.025 48.2729 22.8979 45.9167 22.8979 43.5604 22.8979 41.6875 21.025 41.6875 18.6688 41.6875 16.3125 43.5604 14.4396 45.9167 14.4396 48.2729 14.4396 50.1458 16.3125 50.1458 18.6688" stroke="#156082" stroke-width="0.604167" fill="#156082" transform="matrix(1.60345 0 0 1 511 257)"/><path d="M16.3125 18.6688C16.3125 21.025 14.4396 22.8979 12.0833 22.8979 9.72708 22.8979 7.85417 21.025 7.85417 18.6688 7.85417 16.3125 9.72708 14.4396 12.0833 14.4396 14.4396 14.4396 16.3125 16.3125 16.3125 18.6688" stroke="#156082" stroke-width="0.604167" fill="#156082" transform="matrix(1.60345 0 0 1 511 257)"/><path d="M5.19583 45.9771C5.19583 37.1562 15.8292 30.0271 29 30.0271 42.1104 30.0271 52.8042 37.1562 52.8042 45.9771L5.19583 45.9771Z" stroke="#156082" stroke-width="0.604167" fill="#156082" transform="matrix(1.60345 0 0 1 511 257)"/><path d="M10.6333 32.2625C13.1708 30.5708 16.1313 29.2417 19.3333 28.3958L19.3333 27.7313C19.3333 27.0667 19.0312 26.4021 18.6083 25.9792 18.4271 25.7979 18.0042 25.5562 17.4604 25.3146 14.1375 23.7437 10.2104 23.7437 6.82708 25.2542 6.22292 25.4958 5.73958 25.7979 5.49792 25.9792 5.13542 26.4021 4.83333 27.0667 4.83333 27.7313L4.83333 38.0021C6.22292 35.8875 8.15625 33.8937 10.6333 32.2625" stroke="#156082" stroke-width="0.604167" fill="#156082" transform="matrix(1.60345 0 0 1 511 257)"/><path d="M36.25 27.7917 36.25 25.3146C36.25 24.65 35.9479 23.9854 35.525 23.5625 35.3438 23.3813 34.9208 23.1396 34.3771 22.8979 31.0542 21.3271 27.1271 21.3271 23.7437 22.8375 23.1396 23.0792 22.6562 23.3813 22.4146 23.5625 21.9312 23.9854 21.6896 24.65 21.6896 25.3146L21.6896 27.7917C24.0458 27.3083 26.4625 27.0667 28.9396 27.0667 31.4167 27.0667 33.8937 27.3687 36.25 27.7917" stroke="#156082" stroke-width="0.604167" fill="#156082" transform="matrix(1.60345 0 0 1 511 257)"/><path d="M53.1667 38.0021 53.1667 27.7313C53.1667 27.0667 52.8646 26.4021 52.4417 25.9792 52.2604 25.7979 51.8375 25.5562 51.2938 25.3146 47.9708 23.7437 44.0438 23.7437 40.6604 25.2542 40.0563 25.4958 39.5729 25.7979 39.3312 25.9792 38.8479 26.4021 38.6063 27.0667 38.6063 27.7313L38.6063 28.3958C41.8083 29.2417 44.7687 30.5708 47.3063 32.2625 49.8438 33.8937 51.7771 35.8875 53.1667 38.0021" stroke="#156082" stroke-width="0.604167" fill="#156082" transform="matrix(1.60345 0 0 1 511 257)"/></g></svg>