<svg width="94" height="58" xmlns="http://www.w3.org/2000/svg" xmlns:xlink="http://www.w3.org/1999/xlink" xml:space="preserve" overflow="hidden"><g transform="translate(-514 -317)"><path d="M35.8271 22.5354C33.2896 22.5354 31.2958 20.4813 31.2958 18.0042 31.2958 15.5271 33.35 13.4729 35.8271 13.4729 38.3646 13.4729 40.3583 15.5271 40.3583 18.0042 40.3583 20.4813 38.3042 22.5354 35.8271 22.5354ZM46.0375 15.1646C45.7958 14.3188 45.4938 13.5333 45.0708 12.8083L46.0375 9.96875 43.8625 7.79375 41.0229 8.76042C40.2979 8.3375 39.5125 8.03542 38.6667 7.79375L37.3375 5.13542 34.3167 5.13542 32.9875 7.79375C32.1417 8.03542 31.3563 8.3375 30.6313 8.76042L27.7917 7.79375 25.6167 9.96875 26.5833 12.8083C26.1604 13.5333 25.8583 14.3188 25.6167 15.1646L22.9583 16.4937 22.9583 19.5146 25.6167 20.8438C25.8583 21.6896 26.1604 22.475 26.5833 23.2L25.6167 26.0396 27.7313 28.1542 30.5708 27.1875C31.2958 27.6104 32.0812 27.9125 32.9271 28.1542L34.2563 30.8125 37.2771 30.8125 38.6063 28.1542C39.4521 27.9125 40.2375 27.6104 40.9625 27.1875L43.8021 28.1542 45.9771 26.0396 45.0104 23.2C45.4333 22.475 45.7958 21.6292 46.0375 20.8438L48.6958 19.5146 48.6958 16.4937 46.0375 15.1646Z" stroke="#156082" stroke-width="0.604167" fill="#156082" transform="matrix(1.62069 0 0 1 514 317)"/><path d="M22.1729 44.5271C19.6354 44.5271 17.6417 42.4729 17.6417 39.9958 17.6417 37.4583 19.6958 35.4646 22.1729 35.4646 24.7104 35.4646 26.7042 37.5187 26.7042 39.9958 26.7042 42.4729 24.7104 44.5271 22.1729 44.5271L22.1729 44.5271ZM31.4167 34.8 32.3833 31.9604 30.2083 29.7854 27.3687 30.7521C26.6437 30.3292 25.7979 30.0271 25.0125 29.7854L23.6833 27.1271 20.6625 27.1271 19.3333 29.7854C18.4875 30.0271 17.7021 30.3292 16.9771 30.7521L14.1375 29.7854 12.0229 31.9 12.9292 34.7396C12.5063 35.4646 12.2042 36.3104 11.9625 37.0958L9.30417 38.425 9.30417 41.4458 11.9625 42.775C12.2042 43.6208 12.5063 44.4062 12.9292 45.1312L12.0229 47.9708 14.1375 50.0854 16.9771 49.1792C17.7021 49.6021 18.4875 49.9042 19.3333 50.1458L20.6625 52.8042 23.6833 52.8042 25.0125 50.1458C25.8583 49.9042 26.6437 49.6021 27.3687 49.1792L30.2083 50.1458 32.3229 47.9708 31.4167 45.1917C31.8396 44.4667 32.1417 43.6813 32.3833 42.8354L35.0417 41.5062 35.0417 38.4854 32.3833 37.1562C32.1417 36.3104 31.8396 35.525 31.4167 34.8Z" stroke="#156082" stroke-width="0.604167" fill="#156082" transform="matrix(1.62069 0 0 1 514 317)"/></g></svg>