<svg width="93" height="58" xmlns="http://www.w3.org/2000/svg" xmlns:xlink="http://www.w3.org/1999/xlink" xml:space="preserve" overflow="hidden"><g transform="translate(-511 -375)"><path d="M17.3491 40.2701 28.7463 40.2701 28.7463 42.8028 17.3491 42.8028Z" stroke="#156082" stroke-width="0.633177" fill="#156082" transform="matrix(1.41355 0.365166 -0.585524 0.881569 538.001 369.611)"/><path d="M35.6458 26.5833C35.6458 27.918 34.5639 29 33.2292 29 31.8945 29 30.8125 27.918 30.8125 26.5833 30.8125 25.2486 31.8945 24.1667 33.2292 24.1667 34.5639 24.1667 35.6458 25.2486 35.6458 26.5833Z" stroke="#156082" stroke-width="0.604167" fill="#156082" transform="matrix(1.60345 0 0 1 511 375)"/><path d="M35.6458 26.5833C35.6458 27.918 34.5639 29 33.2292 29 31.8945 29 30.8125 27.918 30.8125 26.5833 30.8125 25.2486 31.8945 24.1667 33.2292 24.1667 34.5639 24.1667 35.6458 25.2486 35.6458 26.5833Z" stroke="#156082" stroke-width="0.604167" fill="#156082" transform="matrix(1.60345 0 0 1 511 375)"/><path d="M34.4375 49.5417C38.8479 46.2188 41.6875 40.9625 41.6875 35.0417 41.6875 28.9396 38.6063 23.5021 33.9542 20.2396L38.8479 8.45833 37.1562 7.79375 38.4854 4.53125 35.1625 3.14167 33.8333 6.40417 32.1417 5.73958 21.9312 30.3292 21.9312 30.3292C21.4479 31.5375 21.6292 32.9271 22.4146 33.8937L21.75 35.4646 25.0729 36.8542 25.7375 35.2833C27.0063 35.1021 28.0938 34.3167 28.6375 33.1083L28.6375 33.1083 29.3021 31.4167 37.5792 31.4167C37.8813 32.5646 38.0625 33.7729 38.0625 35.0417 38.0625 43.0167 31.5375 49.5417 23.5625 49.5417L12.0833 49.5417 12.0833 53.1667 12.0833 54.375 45.9167 54.375 45.9167 53.1667 45.9167 49.5417 34.4375 49.5417ZM33.2292 30.2083C31.2354 30.2083 29.6042 28.5771 29.6042 26.5833 29.6042 24.5896 31.2354 22.9583 33.2292 22.9583 35.2229 22.9583 36.8542 24.5896 36.8542 26.5833 36.8542 28.5771 35.2229 30.2083 33.2292 30.2083Z" stroke="#156082" stroke-width="0.604167" fill="#156082" transform="matrix(1.60345 0 0 1 511 375)"/></g></svg>