<svg width="58" height="57" xmlns="http://www.w3.org/2000/svg" xmlns:xlink="http://www.w3.org/1999/xlink" xml:space="preserve" overflow="hidden"><g transform="translate(-529 -434)"><path d="M18.5155 30.476C16.0719 31.3001 13.7819 32.524 11.739 34.0979 10.3518 35.1813 9.5288 36.8338 9.5 38.5938L9.5 49.0259 10.0284 49.3786C11.2622 50.201 13.3944 50.847 16.0312 51.3202L16.0312 47.5 27.3125 47.5 27.3125 52.2779C27.7626 52.2846 28.2132 52.2882 28.6645 52.2886 29.0059 52.2886 29.3467 52.2844 29.6875 52.2809L29.6875 47.5 40.9688 47.5 40.9688 51.3629C43.7059 50.8784 45.8707 50.2045 47.025 49.3406L47.5 48.9844 47.5 38.5688C47.4684 36.8257 46.6546 35.1891 45.2835 34.1121 43.242 32.5372 40.9536 31.3115 38.5112 30.4849L34.8092 29.0005C34.5855 28.9103 34.4386 28.6937 34.4375 28.4525L34.4375 26.999C36.6886 25.2002 37.9995 22.4753 38 19.5938L38 15.4375 38.5938 15.4375C39.2496 15.4375 39.7812 14.9059 39.7812 14.25 39.7812 13.5941 39.2496 13.0625 38.5938 13.0625L38 13.0625C37.7933 9.78363 35.9071 6.84433 33.0125 5.29031L32.0625 9.04875C31.9955 9.32021 31.7482 9.50813 31.4688 9.5L31.3262 9.5C31.0053 9.43285 30.7995 9.11822 30.8666 8.7973 30.8666 8.79718 30.8667 8.79712 30.8667 8.797 30.8667 8.78572 30.872 8.77503 30.875 8.76375L32.0031 4.31656C31.8052 3.52769 31.0981 2.97304 30.2848 2.96875L26.7223 2.96875C25.9077 2.97142 25.1987 3.52641 25.0004 4.31656L26.1286 8.76375C26.2146 9.07963 26.0286 9.40553 25.7129 9.49228L25.6773 9.5 25.5348 9.5C25.2553 9.50813 25.008 9.32021 24.9411 9.04875L24.0208 5.29031C21.1262 6.84433 19.24 9.78363 19.0332 13.0625L18.4098 13.0625C17.754 13.0625 17.2223 13.5941 17.2223 14.25 17.2223 14.9059 17.754 15.4375 18.4098 15.4375L19.0036 15.4375 19.0036 19.5938C19.0044 22.4731 20.3136 25.1961 22.5619 26.9948L22.5619 28.4525C22.5629 28.6924 22.4185 28.909 22.1967 29.0005ZM21.375 19.5938 21.375 15.4375 35.625 15.4375 35.625 19.5938C35.625 23.5288 32.435 26.7188 28.5 26.7188 24.565 26.7188 21.375 23.5288 21.375 19.5938ZM27.3125 45.125 16.2201 45.125 18.0833 33.2363 23.0927 31.1992C23.1283 31.1843 23.1598 31.1642 23.1948 31.1481L27.3155 40.9688ZM28.5 31.4688C26.904 31.4845 25.3149 31.256 23.788 30.7913 24.5129 30.2319 24.9374 29.3681 24.9375 28.4525L24.9375 28.3931C27.2218 29.3265 29.7811 29.3265 32.0655 28.3931L32.0655 28.4525C32.0645 29.3723 32.493 30.2399 33.2239 30.7984 31.6922 31.2597 30.0995 31.4857 28.5 31.4688ZM29.6875 45.125 29.6875 40.9688 33.8069 31.1511C33.842 31.1671 33.874 31.1879 33.9102 31.2027L38.9571 33.2215 40.7906 45.125Z" stroke="#156082" stroke-width="0.59375" fill="#156082" transform="matrix(1.01754 0 0 1 529 434)"/></g></svg>