<svg width="58" height="57" xmlns="http://www.w3.org/2000/svg" xmlns:xlink="http://www.w3.org/1999/xlink" xml:space="preserve" overflow="hidden"><g transform="translate(-529 -490)"><path d="M47.5 9.61875C47.5 11.9142 45.6392 13.775 43.3438 13.775 41.0483 13.775 39.1875 11.9142 39.1875 9.61875 39.1875 7.32332 41.0483 5.4625 43.3438 5.4625 45.6392 5.4625 47.5 7.32332 47.5 9.61875Z" stroke="#156082" stroke-width="0.59375" fill="#156082" transform="matrix(1.01754 0 0 1 529 490)"/><path d="M17.8125 9.61875C17.8125 11.9142 15.9517 13.775 13.6562 13.775 11.3608 13.775 9.5 11.9142 9.5 9.61875 9.5 7.32332 11.3608 5.4625 13.6562 5.4625 15.9517 5.4625 17.8125 7.32332 17.8125 9.61875Z" stroke="#156082" stroke-width="0.59375" fill="#156082" transform="matrix(1.01754 0 0 1 529 490)"/><path d="M32.6562 9.61875C32.6562 11.9142 30.7954 13.775 28.5 13.775 26.2046 13.775 24.3438 11.9142 24.3438 9.61875 24.3438 7.32332 26.2046 5.4625 28.5 5.4625 30.7954 5.4625 32.6562 7.32332 32.6562 9.61875Z" stroke="#156082" stroke-width="0.59375" fill="#156082" transform="matrix(1.01754 0 0 1 529 490)"/><path d="M39.0688 28.975 36.3969 19.1187C36.2781 18.7625 36.1 18.4062 35.8625 18.1688 34.7344 16.9813 33.3094 16.0906 31.7656 15.5563 30.7563 15.2 29.6875 15.0219 28.5594 15.0219 27.4312 15.0219 26.3625 15.2 25.3531 15.5563 23.75 16.0906 22.3844 16.9813 21.2563 18.1688 21.0188 18.4656 20.8406 18.7625 20.7219 19.1187L18.05 28.975C17.8125 29.925 18.2875 30.9937 19.2969 31.2312 19.475 31.2906 19.5938 31.2906 19.7719 31.2906 20.5437 31.2906 21.2563 30.7563 21.4937 29.9844L23.8687 21.3156 23.8687 51.5375 27.4312 51.5375 27.4312 34.5563 29.8062 34.5563 29.8062 51.4781 33.3688 51.4781 33.3688 21.3156 35.7438 29.9844C35.9813 30.7563 36.6937 31.2906 37.4656 31.2906 37.6437 31.2906 37.7625 31.2906 37.9406 31.2312 38.7719 30.9937 39.3062 29.925 39.0688 28.975Z" stroke="#156082" stroke-width="0.59375" fill="#156082" transform="matrix(1.01754 0 0 1 529 490)"/><path d="M16.8031 28.6781 19.475 18.8219C19.5938 18.2875 19.8906 17.8125 20.1875 17.3969 19.2375 16.5656 18.05 15.9125 16.8031 15.4969 15.7937 15.1406 14.725 14.9625 13.5969 14.9625 12.4688 14.9625 11.4 15.1406 10.3906 15.4969 8.7875 16.0312 7.42188 16.9219 6.29375 18.1094 6.05625 18.4062 5.87812 18.7031 5.75938 19.0594L3.0875 28.975C2.85 29.925 3.325 30.9937 4.33437 31.2312 4.5125 31.2906 4.63125 31.2906 4.80938 31.2906 5.58125 31.2906 6.29375 30.7563 6.53125 29.9844L8.90625 21.3156 8.90625 51.5375 12.4688 51.5375 12.4688 34.5563 14.8438 34.5563 14.8438 51.4781 18.4062 51.4781 18.4062 32.2406C17.1594 31.6469 16.4469 30.1625 16.8031 28.6781Z" stroke="#156082" stroke-width="0.59375" fill="#156082" transform="matrix(1.01754 0 0 1 529 490)"/><path d="M53.9125 28.975 51.1812 19.1187C51.0625 18.7625 50.8844 18.4062 50.6469 18.1688 49.5187 16.9813 48.0938 16.0906 46.55 15.5563 45.5406 15.2 44.4719 15.0219 43.3438 15.0219 42.2156 15.0219 41.1469 15.2 40.1375 15.5563 38.8906 15.9719 37.7625 16.625 36.7531 17.4562 37.1094 17.8719 37.3469 18.3469 37.4656 18.8219L40.1375 28.6781C40.5531 30.1625 39.7812 31.6469 38.5344 32.2406L38.5344 51.5375 42.0969 51.5375 42.0969 34.5563 44.4719 34.5563 44.4719 51.4781 48.0344 51.4781 48.0344 21.3156 50.4094 29.9844C50.6469 30.7563 51.3594 31.2906 52.1313 31.2906 52.3094 31.2906 52.4281 31.2906 52.6063 31.2312 53.6156 30.9937 54.15 29.925 53.9125 28.975Z" stroke="#156082" stroke-width="0.59375" fill="#156082" transform="matrix(1.01754 0 0 1 529 490)"/></g></svg>