<svg width="58" height="58" xmlns="http://www.w3.org/2000/svg" xmlns:xlink="http://www.w3.org/1999/xlink" xml:space="preserve" overflow="hidden"><g transform="translate(-529 -548)"><path d="M579.75 595.729 579.75 589.083 577.34 589.083 577.34 572.771 578.889 572.146C579.397 571.941 579.703 571.42 579.636 570.877L578.717 563.449C578.639 562.819 578.398 562.221 578.017 561.715L573.522 555.733C573.193 555.296 572.611 555.134 572.103 555.339L567.365 557.252C566.748 557.503 566.451 558.206 566.7 558.823L569.051 564.645 544.708 574.728 544.708 573.375 535.042 573.375 535.042 583.042 536.25 583.042 536.25 595.729 531.417 595.729 531.417 599.354 584.583 599.354 584.583 595.729ZM559.51 572.52 570.401 568.009 572.576 573.391C572.827 574.008 573.53 574.305 574.147 574.056L574.923 573.743 574.923 589.083 572.5 589.083 572.5 595.729 562.108 595.729ZM557.918 590.896 553.396 590.896 553.666 588.479 557.648 588.479ZM553.936 586.062 554.209 583.619 557.104 583.619 557.378 586.062ZM556.836 581.202 554.48 581.202 554.747 578.812 556.567 578.812ZM555.017 576.396 555.253 574.281 556.025 573.961 556.297 576.396ZM553.126 593.312 558.188 593.312 558.458 595.729 552.856 595.729ZM551.428 575.868 549.208 595.729 543.5 595.729 543.5 583.042 544.708 583.042 544.708 578.651ZM538.667 583.042 541.083 583.042 541.083 595.729 538.667 595.729Z" stroke="#156082" stroke-width="0.604167" fill="#156082"/></g></svg>